<?xml version="1.0" encoding="UTF-8"?>
<svg version="1.1" xmlns="http://www.w3.org/2000/svg" width="278" height="229">
<path d="M0 0 C91.74 0 183.48 0 278 0 C278 75.57 278 151.14 278 229 C186.26 229 94.52 229 0 229 C0 153.43 0 77.86 0 0 Z " fill="#F2F2F2" transform="translate(0,0)"/>
<path d="M0 0 C5.620274 0.05209987 11.01641758 0.68534504 16.5625 1.5 C27.5738275 3.11402853 38.61595959 4.27023986 49.6875 5.375 C50.9632489 5.50412781 50.9632489 5.50412781 52.26477051 5.63586426 C62.01407442 6.62014413 71.74776447 7.4415361 81.52978516 8.01269531 C87.6381378 8.39589647 93.72309558 8.95288595 99.8125 9.5625 C101.606875 9.72008789 101.606875 9.72008789 103.4375 9.88085938 C111.49377296 10.69628966 117.69712783 11.90578074 123.8125 17.5625 C126.73458495 22.79790221 125.28844588 27.42206544 123.86572266 32.95776367 C123.29387938 35.32715312 122.82212289 37.69777996 122.375 40.09375 C117.8702138 64.19728138 112.01370663 88.18922919 105 111.6875 C100.71904156 126.0563203 98.216623 140.86476186 95.6875 155.625 C92.39541312 174.57083606 92.39541312 174.57083606 86.3125 179.25 C79.85300916 182.47974542 68.59014919 178.43431296 61.8125 177 C59.59018961 176.54258728 57.36752045 176.08691481 55.14453125 175.6328125 C54.01096191 175.40110352 52.87739258 175.16939453 51.70947266 174.93066406 C46.31758059 173.85027057 40.90973369 172.8614689 35.5 171.875 C27.87571647 170.48236535 20.26012317 169.05448793 12.65625 167.5546875 C11.90946991 167.40756317 11.16268982 167.26043884 10.39328003 167.1088562 C4.20687411 165.88975696 4.20687411 165.88975696 1.206604 165.29656982 C-7.00317775 163.67712583 -15.21384184 162.12338199 -23.4765625 160.796875 C-24.51942665 160.62877319 -24.51942665 160.62877319 -25.58335876 160.45727539 C-28.85716467 159.93280359 -32.13197863 159.4244223 -35.41137695 158.93554688 C-36.563396 158.75572266 -37.71541504 158.57589844 -38.90234375 158.390625 C-39.90386475 158.24141602 -40.90538574 158.09220703 -41.93725586 157.93847656 C-46.8057863 156.71972327 -50.03341264 154.49653978 -52.6875 150.25 C-55.27224621 142.49576137 -52.63791719 136.53384243 -49.6875 129.25 C-50.29078125 128.98832031 -50.8940625 128.72664062 -51.515625 128.45703125 C-55.3456203 126.3284907 -57.12330923 123.28103709 -58.6875 119.25 C-59.51208592 113.52723277 -59.78429314 107.53389985 -57.125 102.25 C-53.62196848 97.93857658 -49.97493188 95.01247729 -44.6875 93.25 C-43.12631572 93.18259135 -41.5624748 93.16485544 -40 93.1875 C-39.19175781 93.19652344 -38.38351563 93.20554687 -37.55078125 93.21484375 C-36.93589844 93.22644531 -36.32101563 93.23804687 -35.6875 93.25 C-37.09402774 88.77468445 -39.3672098 86.48728294 -42.6875 83.25 C-45.96325122 78.16693775 -45.24029597 72.04727055 -44.6875 66.25 C-43.20730291 60.98499515 -39.33811003 57.54760143 -34.9921875 54.47265625 C-31.09985148 52.40773901 -27.02725751 51.76579085 -22.6875 51.25 C-22.3575 49.6 -22.0275 47.95 -21.6875 46.25 C-22.43 46.04375 -23.1725 45.8375 -23.9375 45.625 C-28.34324045 43.42212978 -30.16474317 39.81827048 -31.6875 35.25 C-32.39915118 28.3876493 -32.47152196 22.61050562 -28.22265625 16.94140625 C-24.74436816 13.10909393 -22.12475687 10.50326421 -16.79296875 9.94921875 C-14.07096222 9.93873605 -11.39978622 10.02928955 -8.6875 10.25 C-8.48253906 9.61191406 -8.27757812 8.97382812 -8.06640625 8.31640625 C-7.79699219 7.49011719 -7.52757812 6.66382813 -7.25 5.8125 C-6.98316406 4.98878906 -6.71632812 4.16507813 -6.44140625 3.31640625 C-5.10174579 -0.35551284 -3.73653167 0.06396345 0 0 Z " fill="#DEDEDE" transform="translate(118.6875,29.75)"/>
<path d="M0 0 C5.620274 0.05209987 11.01641758 0.68534504 16.5625 1.5 C27.5738275 3.11402853 38.61595959 4.27023986 49.6875 5.375 C50.9632489 5.50412781 50.9632489 5.50412781 52.26477051 5.63586426 C62.01407442 6.62014413 71.74776447 7.4415361 81.52978516 8.01269531 C87.6381378 8.39589647 93.72309558 8.95288595 99.8125 9.5625 C101.606875 9.72008789 101.606875 9.72008789 103.4375 9.88085938 C111.49377296 10.69628966 117.69712783 11.90578074 123.8125 17.5625 C126.73458495 22.79790221 125.28844588 27.42206544 123.86572266 32.95776367 C123.29387938 35.32715312 122.82212289 37.69777996 122.375 40.09375 C117.8702138 64.19728138 112.01370663 88.18922919 105 111.6875 C100.71904156 126.0563203 98.216623 140.86476186 95.6875 155.625 C92.39541312 174.57083606 92.39541312 174.57083606 86.3125 179.25 C79.85300916 182.47974542 68.59014919 178.43431296 61.8125 177 C59.59018961 176.54258728 57.36752045 176.08691481 55.14453125 175.6328125 C54.01096191 175.40110352 52.87739258 175.16939453 51.70947266 174.93066406 C46.31758059 173.85027057 40.90973369 172.8614689 35.5 171.875 C27.87571647 170.48236535 20.26012317 169.05448793 12.65625 167.5546875 C11.90946991 167.40756317 11.16268982 167.26043884 10.39328003 167.1088562 C4.20687411 165.88975696 4.20687411 165.88975696 1.206604 165.29656982 C-7.00317775 163.67712583 -15.21384184 162.12338199 -23.4765625 160.796875 C-24.51942665 160.62877319 -24.51942665 160.62877319 -25.58335876 160.45727539 C-28.85716467 159.93280359 -32.13197863 159.4244223 -35.41137695 158.93554688 C-36.563396 158.75572266 -37.71541504 158.57589844 -38.90234375 158.390625 C-39.90386475 158.24141602 -40.90538574 158.09220703 -41.93725586 157.93847656 C-46.8057863 156.71972327 -50.03341264 154.49653978 -52.6875 150.25 C-55.27224621 142.49576137 -52.63791719 136.53384243 -49.6875 129.25 C-50.29078125 128.98832031 -50.8940625 128.72664062 -51.515625 128.45703125 C-55.3456203 126.3284907 -57.12330923 123.28103709 -58.6875 119.25 C-59.51208592 113.52723277 -59.78429314 107.53389985 -57.125 102.25 C-53.62196848 97.93857658 -49.97493188 95.01247729 -44.6875 93.25 C-43.12631572 93.18259135 -41.5624748 93.16485544 -40 93.1875 C-39.19175781 93.19652344 -38.38351563 93.20554687 -37.55078125 93.21484375 C-36.93589844 93.22644531 -36.32101563 93.23804687 -35.6875 93.25 C-37.09402774 88.77468445 -39.3672098 86.48728294 -42.6875 83.25 C-45.96325122 78.16693775 -45.24029597 72.04727055 -44.6875 66.25 C-43.20730291 60.98499515 -39.33811003 57.54760143 -34.9921875 54.47265625 C-31.09985148 52.40773901 -27.02725751 51.76579085 -22.6875 51.25 C-22.3575 49.6 -22.0275 47.95 -21.6875 46.25 C-22.43 46.04375 -23.1725 45.8375 -23.9375 45.625 C-28.34324045 43.42212978 -30.16474317 39.81827048 -31.6875 35.25 C-32.39915118 28.3876493 -32.47152196 22.61050562 -28.22265625 16.94140625 C-24.74436816 13.10909393 -22.12475687 10.50326421 -16.79296875 9.94921875 C-14.07096222 9.93873605 -11.39978622 10.02928955 -8.6875 10.25 C-8.48253906 9.61191406 -8.27757812 8.97382812 -8.06640625 8.31640625 C-7.79699219 7.49011719 -7.52757812 6.66382813 -7.25 5.8125 C-6.98316406 4.98878906 -6.71632812 4.16507813 -6.44140625 3.31640625 C-5.10174579 -0.35551284 -3.73653167 0.06396345 0 0 Z M-2.6875 6.25 C-3.08786078 8.23766757 -3.41720659 10.24050937 -3.6875 12.25 C-2.46811448 14.21023535 -2.46811448 14.21023535 -0.5 15.5625 C0.41845703 16.29919922 0.41845703 16.29919922 1.35546875 17.05078125 C3.35611487 18.27672608 5.01901946 18.81774757 7.3125 19.25 C7.5625 21.5625 7.5625 21.5625 7.3125 24.25 C5.625 26.125 5.625 26.125 3.3125 27.25 C0.5625 26.9375 0.5625 26.9375 -1.6875 26.25 C-2.1825 22.785 -2.1825 22.785 -2.6875 19.25 C-4.0075 18.92 -5.3275 18.59 -6.6875 18.25 C-8.52247458 21.00246187 -9.23918005 22.73678053 -10.08984375 25.85546875 C-10.34056641 26.75716797 -10.59128906 27.65886719 -10.84960938 28.58789062 C-11.10548828 29.52826172 -11.36136719 30.46863281 -11.625 31.4375 C-14.47318496 41.84685119 -14.47318496 41.84685119 -16.37109375 46.76171875 C-17.8125881 50.03908861 -17.8125881 50.03908861 -17.8125 52.875 C-16.05114861 56.59340848 -13.10361531 59.01502601 -9.6875 61.25 C-7.55156564 61.93760217 -7.55156564 61.93760217 -5.6875 62.25 C-5.4375 64.5625 -5.4375 64.5625 -5.6875 67.25 C-7.375 69.125 -7.375 69.125 -9.6875 70.25 C-12.4375 69.9375 -12.4375 69.9375 -14.6875 69.25 C-15.35416667 66.58333333 -16.02083333 63.91666667 -16.6875 61.25 C-18.0075 60.92 -19.3275 60.59 -20.6875 60.25 C-23.52056215 67.13162337 -26.08129517 74.06649797 -28.4375 81.125 C-28.75332031 82.04796875 -29.06914063 82.9709375 -29.39453125 83.921875 C-29.69230469 84.81132813 -29.99007812 85.70078125 -30.296875 86.6171875 C-30.56467773 87.41237793 -30.83248047 88.20756836 -31.10839844 89.02685547 C-31.85555053 91.51224981 -31.85555053 91.51224981 -31.6875 95.25 C-28.87038354 97.37821884 -28.87038354 97.37821884 -25.6875 99.25 C-25.15125 99.8275 -24.615 100.405 -24.0625 101 C-22.50391638 102.69844853 -22.50391638 102.69844853 -18.6875 102.25 C-20.4375 108 -20.4375 108 -22.6875 110.25 C-25.25 110.4375 -25.25 110.4375 -27.6875 110.25 C-29.65572886 108.28177114 -29.34998381 104.90191291 -29.6875 102.25 C-31.3375 101.59 -32.9875 100.93 -34.6875 100.25 C-38.47430663 109.91450223 -38.47430663 109.91450223 -41.86328125 119.72265625 C-42.54756715 121.82091681 -43.26039689 123.90984327 -43.98046875 125.99609375 C-44.20992187 126.66527832 -44.439375 127.33446289 -44.67578125 128.02392578 C-45.13352658 129.35848356 -45.59560372 130.6915653 -46.0625 132.02294922 C-47.18914966 135.33464258 -47.6875 137.69840828 -47.6875 141.25 C-46.52581299 141.41725586 -45.36412598 141.58451172 -44.16723633 141.75683594 C-30.52200986 143.74790966 -16.94967826 146.07889377 -3.375 148.5 C-1.13781539 148.896784 1.0994085 149.29334661 3.33666992 149.68969727 C13.83164584 151.55109493 24.32364164 153.4286609 34.8125 155.32421875 C36.14356026 155.56445267 36.14356026 155.56445267 37.50151062 155.80953979 C41.60301429 156.54997454 45.70401247 157.29296055 49.80395508 158.04199219 C65.95526373 161.22486734 65.95526373 161.22486734 82.3125 162.25 C85.49953283 150.85305309 88.20629971 139.38185364 90.6875 127.8125 C93.15688562 116.30308487 95.84955009 104.87773326 98.75952148 93.4699707 C101.01179132 84.5912296 103.02104131 75.67468612 104.9597168 66.72290039 C106.36085435 60.32685005 107.85915177 53.96440574 109.46484375 47.6171875 C109.74112862 46.52440491 109.74112862 46.52440491 110.022995 45.4095459 C110.92948891 41.83509334 111.84576768 38.26341245 112.77319336 34.69433594 C113.10667783 33.39259599 113.44009583 32.09083902 113.7734375 30.7890625 C114.21888916 29.07517334 114.21888916 29.07517334 114.67333984 27.32666016 C115.26331183 24.48677207 115.60018668 22.13258245 115.3125 19.25 C112.32492983 16.26242983 108.81355643 16.59442414 104.78125 16.25 C103.91673218 16.16878906 103.05221436 16.08757813 102.16149902 16.00390625 C99.3792012 15.74419349 96.59597971 15.49669233 93.8125 15.25 C91.09819223 15.00187903 88.38413017 14.75120656 85.67010498 14.50001526 C83.85838534 14.33233735 82.04657552 14.16563117 80.23468018 13.99986267 C74.59135169 13.47908913 68.95876637 12.89686494 63.328125 12.25390625 C54.0142733 11.19198161 44.68640267 10.30595592 35.35205078 9.44506836 C32.55088343 9.1864274 29.75004389 8.92442746 26.94921875 8.66210938 C17.07648643 7.74326813 7.20762403 6.89374647 -2.6875 6.25 Z " fill="#0D0D0D" transform="translate(118.6875,29.75)"/>
<path d="M0 0 C11.22 0 22.44 0 34 0 C34 5.61 34 11.22 34 17 C39.28 17 44.56 17 50 17 C50 22.61 50 28.22 50 34 C44.72 34 39.44 34 34 34 C34.020625 36.454375 34.04125 38.90875 34.0625 41.4375 C34.0983596 50.32893234 33.59636017 59.12914249 33 68 C27.72 68 22.44 68 17 68 C17 73.61 17 79.22 17 85 C22.28 85 27.56 85 33 85 C33 90.28 33 95.56 33 101 C28.38 101.33 23.76 101.66 19 102 C18.67 107.28 18.34 112.56 18 118 C17.67 118 17.34 118 17 118 C17 112.72 17 107.44 17 102 C11.39 102 5.78 102 0 102 C0 96 0 90 0 84 C-5.28 84 -10.56 84 -16 84 C-16 73.11 -16 62.22 -16 51 C-10.72 51 -5.44 51 0 51 C0 45.39 0 39.78 0 34 C-5.28 34 -10.56 34 -16 34 C-16 28.39 -16 22.78 -16 17 C-10.72 17 -5.44 17 0 17 C0 11.39 0 5.78 0 0 Z " fill="#F7F8F7" transform="translate(36,9)"/>
<path d="M0 0 C33.33 0 66.66 0 101 0 C101 2.97 101 5.94 101 9 C89.78 9 78.56 9 67 9 C67 14.61 67 20.22 67 26 C78.22 26 89.44 26 101 26 C101 30.62 101 35.24 101 40 C90.74046935 40.12511623 90.74046935 40.12511623 87.18969727 39.52514648 C84.10686449 39.01759399 81.08794105 38.72193649 77.97265625 38.5 C76.85052734 38.4175 75.72839844 38.335 74.57226562 38.25 C73.41404297 38.1675 72.25582031 38.085 71.0625 38 C51.60974143 36.60974143 51.60974143 36.60974143 50 35 C49.85806663 31.99668982 49.95763622 29.00782866 50 26 C44.39 26 38.78 26 33 26 C33 20.39 33 14.78 33 9 C27.39 9 21.78 9 16 9 C16 14.61 16 20.22 16 26 C10.72 26 5.44 26 0 26 C0 17.42 0 8.84 0 0 Z " fill="#EDEDED" transform="translate(120,0)"/>
<path d="M0 0 C5.61 0 11.22 0 17 0 C17 5.28 17 10.56 17 16 C19.31 16 21.62 16 24 16 C24 21.94 24 27.88 24 34 C21.69 34 19.38 34 17 34 C17 39.28 17 44.56 17 50 C11.39 50 5.78 50 0 50 C0 44.72 0 39.44 0 34 C-5.28 34 -10.56 34 -16 34 C-15.979375 35.711875 -15.95875 37.42375 -15.9375 39.1875 C-15.89034841 43.10108218 -16.21700392 46.0850196 -17 50 C-21.62 50 -26.24 50 -31 50 C-29 37.14285714 -29 37.14285714 -27 32 C-23.7 32.33 -20.4 32.66 -17 33 C-17.01160156 32.09636719 -17.02320313 31.19273438 -17.03515625 30.26171875 C-17.04417969 29.08222656 -17.05320313 27.90273437 -17.0625 26.6875 C-17.07990234 24.92986328 -17.07990234 24.92986328 -17.09765625 23.13671875 C-17 20 -17 20 -16 17 C-10.72 17 -5.44 17 0 17 C0 11.39 0 5.78 0 0 Z " fill="#E6E6E6" transform="translate(254,94)"/>
<path d="M0 0 C5.61 0 11.22 0 17 0 C17 5.61 17 11.22 17 17 C22.28 17 27.56 17 33 17 C33 11.39 33 5.78 33 0 C38.61 0 44.22 0 50 0 C50 5.61 50 11.22 50 17 C55.61 17 61.22 17 67 17 C67 19.97 67 22.94 67 26 C58.0443692 26.19103623 49.38388747 25.67298593 40.5 24.5625 C39.36046875 24.42779297 38.2209375 24.29308594 37.046875 24.15429688 C28.79538301 23.16159978 28.79538301 23.16159978 25.3371582 22.45898438 C22.41766305 21.88563737 19.65974655 21.90483795 16.6875 21.9375 C15.61886719 21.94652344 14.55023438 21.95554687 13.44921875 21.96484375 C12.64097656 21.97644531 11.83273438 21.98804687 11 22 C9.02 26.455 9.02 26.455 7 31 C6.25234375 31.04898438 5.5046875 31.09796875 4.734375 31.1484375 C3.74953125 31.22320312 2.7646875 31.29796875 1.75 31.375 C0.77546875 31.44460937 -0.1990625 31.51421875 -1.203125 31.5859375 C-3.96688383 31.84406417 -3.96688383 31.84406417 -6.09375 33.0625 C-9.4143009 34.69555782 -12.43777487 33.59370419 -16 33 C-16 27.72 -16 22.44 -16 17 C-10.72 17 -5.44 17 0 17 C0 11.39 0 5.78 0 0 Z " fill="#E7E7E7" transform="translate(103,9)"/>
<path d="M0 0 C0.99 0.99 0.99 0.99 2 2 C4.31 2 6.62 2 9 2 C9 7.61 9 13.22 9 19 C3.39 19 -2.22 19 -8 19 C-7.96042843 24.22063275 -7.96042843 24.22063275 -7.90991211 29.44116211 C-7.90276055 31.29433759 -7.9497148 33.14749308 -8 35 C-9 36 -9 36 -12.59765625 36.09765625 C-14.08597255 36.09191272 -15.57426296 36.07889891 -17.0625 36.0625 C-19.681875 36.041875 -22.30125 36.02125 -25 36 C-25 30.39 -25 24.78 -25 19 C-30.61 19 -36.22 19 -42 19 C-42 24.28 -42 29.56 -42 35 C-47.61 35 -53.22 35 -59 35 C-59 29.72 -59 24.44 -59 19 C-64.28 19 -69.56 19 -75 19 C-75 14.38 -75 9.76 -75 5 C-66.4901673 6.40541176 -57.99147061 7.86268246 -49.5 9.375 C-47.67927979 9.69827271 -47.67927979 9.69827271 -45.82177734 10.02807617 C-37.59280285 11.50152574 -29.38931585 13.07010995 -21.21679688 14.83154297 C-16.1263061 15.89779441 -11.50145004 16.4072128 -6.3125 15.5625 C-1.90848709 12.5868156 -1.42303501 6.88442867 -0.3125 1.9375 C-0.209375 1.298125 -0.10625 0.65875 0 0 Z " fill="#E4E4E4" transform="translate(212,193)"/>
<path d="M0 0 C16.83 2.97 16.83 2.97 34 6 C33.34 6.33 32.68 6.66 32 7 C32 7.99 32 8.98 32 10 C26.72 10 21.44 10 16 10 C16 15.61 16 21.22 16 27 C10.39 27 4.78 27 -1 27 C-1 32.28 -1 37.56 -1 43 C-6.28 43 -11.56 43 -17 43 C-17 32.11 -17 21.22 -17 10 C-11.39 10 -5.78 10 0 10 C0 6.7 0 3.4 0 0 Z " fill="#E4E4E4" transform="translate(70,185)"/>
<path d="M0 0 C1.23786255 0.01595215 1.23786255 0.01595215 2.50073242 0.03222656 C21.11902467 0.57956867 43.25014232 4.39460379 59.6875 13.5 C61.72567627 15.76365781 62.58890786 17.00703932 63.1875 20 C62.6875 22.5 62.6875 22.5 60.5 24.875 C57.6875 26.5 57.6875 26.5 55.578125 26.3125 C52.3563809 25.40692869 49.28115965 24.26307304 46.15454102 23.07470703 C33.28458216 18.2427275 20.64999316 15.70291486 6.90234375 15.28125 C5.9477124 15.25144043 4.99308105 15.22163086 4.00952148 15.19091797 C2.16961645 15.14794069 0.3288995 15.13012597 -1.51147461 15.14111328 C-7.7269974 15.04355348 -7.7269974 15.04355348 -10.875 12.12109375 C-12.49254753 9.17170681 -12.98854586 7.79572356 -12.3125 4.5 C-8.99496869 -0.15483075 -5.32261871 -0.12481303 0 0 Z " fill="#131313" transform="translate(144.3125,73.5)"/>
<path d="M0 0 C5.28 0 10.56 0 16 0 C16 5.61 16 11.22 16 17 C10.72 17 5.44 17 0 17 C0.020625 19.454375 0.04125 21.90875 0.0625 24.4375 C0.0983596 33.32893234 -0.40363983 42.12914249 -1 51 C-6.28 51 -11.56 51 -17 51 C-17.19607969 47.02109054 -17.38211401 43.04212662 -17.5625 39.0625 C-17.61857422 37.94552734 -17.67464844 36.82855469 -17.73242188 35.67773438 C-18.01270914 29.30587052 -17.90419952 23.31600106 -17 17 C-11.72 16.67 -6.44 16.34 -1 16 C-0.67 10.72 -0.34 5.44 0 0 Z " fill="#F8F8F8" transform="translate(70,26)"/>
<path d="M0 0 C0.76812012 0.11754639 1.53624023 0.23509277 2.32763672 0.35620117 C18.196242 3.03636168 18.196242 3.03636168 23.0625 8.6875 C23.625 12.25 23.625 12.25 23.0625 15.6875 C21.4375 17.6875 21.4375 17.6875 19.0625 18.6875 C14.65982366 18.48272436 10.69546128 16.93954542 6.6015625 15.40625 C-0.74613477 13.32628646 -8.30431954 13.53426875 -15.875 13.5625 C-16.90818359 13.55863281 -17.94136719 13.55476563 -19.00585938 13.55078125 C-23.74999805 13.55679029 -28.30779509 13.68547372 -33.00390625 14.3828125 C-36.9375 14.6875 -36.9375 14.6875 -38.65209961 13.38623047 C-39.9375 11.6875 -39.9375 11.6875 -40.4375 8.8125 C-39.74799212 4.50307576 -38.44060902 3.26121275 -34.9375 0.6875 C-24.49864577 -3.7501627 -10.90332116 -1.68032843 0 0 Z " fill="#1E1E1E" transform="translate(164.9375,108.3125)"/>
<path d="M0 0 C5.28 0 10.56 0 16 0 C16 5.28 16 10.56 16 16 C21.61 16 27.22 16 33 16 C33 21.61 33 27.22 33 33 C22.11 33 11.22 33 0 33 C0 22.11 0 11.22 0 0 Z " fill="#E4E4E4" transform="translate(238,145)"/>
<path d="M0 0 C1.01210793 0.00137466 1.01210793 0.00137466 2.04466248 0.0027771 C3.47100874 0.00880034 4.8973431 0.02450831 6.32348633 0.04931641 C8.46550223 0.08542185 10.60576069 0.09033788 12.74804688 0.08984375 C36.44951732 0.20879545 36.44951732 0.20879545 44.93359375 7.4609375 C46.4752255 10.544201 46.2310691 13.06971849 45.93359375 16.4609375 C43.9012448 18.79437518 42.57898194 19.3420502 39.55859375 19.8984375 C36.93359375 19.4609375 36.93359375 19.4609375 34.05859375 17.5234375 C28.64538684 13.95072094 22.4617047 14.31828506 16.13671875 14.25 C14.66925895 14.2219695 13.20181114 14.1933054 11.734375 14.1640625 C9.4477525 14.12262209 7.16136392 14.08568366 4.87451172 14.05957031 C2.64896182 14.0320299 0.42439222 13.98621562 -1.80078125 13.9375 C-2.48517273 13.93424713 -3.16956421 13.93099426 -3.87469482 13.92764282 C-6.70840323 13.8540464 -8.63178879 13.76521387 -10.98925781 12.11474609 C-12.73826889 9.42938775 -12.57451449 7.57310049 -12.06640625 4.4609375 C-8.21307358 0.47299255 -5.44692131 -0.03615449 0 0 Z " fill="#121212" transform="translate(119.06640625,136.5390625)"/>
<path d="M0 0 C0.99 0 1.98 0 3 0 C3 10.89 3 21.78 3 33 C8.28 33 13.56 33 19 33 C18.979375 30.525 18.95875 28.05 18.9375 25.5 C18.90318658 16.95763108 19.3859638 8.51975232 20 0 C25.28 0 30.56 0 36 0 C36 11.22 36 22.44 36 34 C24.12 34 12.24 34 0 34 C0 22.78 0 11.56 0 0 Z " fill="#E4E4E4" transform="translate(0,195)"/>
<path d="M0 0 C5.28 0 10.56 0 16 0 C16 5.61 16 11.22 16 17 C10.72 17 5.44 17 0 17 C0 22.28 0 27.56 0 33 C4.89153471 32.9604321 4.89153471 32.9604321 9.78295898 32.90991211 C11.52221717 32.90275087 13.26145304 32.94975298 15 33 C16 34 16 34 16.09765625 37.59765625 C16.09191272 39.08597255 16.07889891 40.57426296 16.0625 42.0625 C16.041875 44.681875 16.02125 47.30125 16 50 C10.72 50 5.44 50 0 50 C-0.375 42.5625 -0.375 42.5625 -0.47802734 40.21704102 C-0.58045182 38.47234889 -0.78742165 36.73471952 -1 35 C-1.66 34.67 -2.32 34.34 -3 34 C-3 28.06 -3 22.12 -3 16 C-2.01 16 -1.02 16 0 16 C0 10.72 0 5.44 0 0 Z " fill="#F9F9F9" transform="translate(3,94)"/>
<path d="M0 0 C11.22 0 22.44 0 34 0 C34 5.61 34 11.22 34 17 C22.78 17 11.56 17 0 17 C0 11.39 0 5.78 0 0 Z " fill="#E3E4E3" transform="translate(187,9)"/>
<path d="M0 0 C9.74605706 0.59617905 19.22796509 2.36025984 28.8125 4.125 C30.53565155 4.43839741 32.25887899 4.75137781 33.98217773 5.06396484 C42.64268815 6.63811237 51.29833793 8.2384772 59.953125 9.84375 C62.36359311 10.29063164 64.77407021 10.73746456 67.18457031 11.18417358 C68.76795398 11.47770512 70.35128748 11.77150737 71.93457031 12.06558228 C84.09299092 14.32152939 96.2681269 16.43597297 108.47680664 18.40283203 C114.70790492 19.41323228 120.85412388 20.55660083 127 22 C127.495 24.475 127.495 24.475 128 27 C120.5243964 27.30472883 113.68866029 26.43501828 106.375 24.9375 C105.25601318 24.71562012 104.13702637 24.49374023 102.98413086 24.26513672 C92.80590871 22.22181061 82.67010669 19.98223872 72.53637695 17.73046875 C62.40572594 15.48648535 52.24427272 13.4351597 42.0625 11.4375 C27.9434616 8.66571556 13.95278831 5.52687323 0 2 C0 1.34 0 0.68 0 0 Z " fill="#DCDBDC" transform="translate(72,176)"/>
<path d="M0 0 C5.28 0 10.56 0 16 0 C16 10.89 16 21.78 16 33 C10.72 33 5.44 33 0 33 C0 22.11 0 11.22 0 0 Z " fill="#F9F9F9" transform="translate(36,195)"/>
<path d="M0 0 C5.28 0 10.56 0 16 0 C16 10.89 16 21.78 16 33 C10.72 33 5.44 33 0 33 C0 22.11 0 11.22 0 0 Z " fill="#F8F9F8" transform="translate(3,195)"/>
<path d="M0 0 C1.98 0 3.96 0 6 0 C6 11.22 6 22.44 6 34 C3.69 34 1.38 34 -1 34 C-1 28.39 -1 22.78 -1 17 C-6.61 17 -12.22 17 -18 17 C-18 11.72 -18 6.44 -18 1 C-16.17662109 1.01740234 -16.17662109 1.01740234 -14.31640625 1.03515625 C-12.73177236 1.04453278 -11.14713682 1.05363313 -9.5625 1.0625 C-8.76005859 1.07087891 -7.95761719 1.07925781 -7.13085938 1.08789062 C-5.08704779 1.0965143 -3.04316098 1.0522815 -1 1 C-0.67 0.67 -0.34 0.34 0 0 Z " fill="#E5E5E5" transform="translate(272,178)"/>
<path d="M0 0 C5.28 0 10.56 0 16 0 C16 5.61 16 11.22 16 17 C10.72 17 5.44 17 0 17 C-0.33 22.28 -0.66 27.56 -1 33 C-3.97 33 -6.94 33 -10 33 C-9.54775239 27.08507728 -8.8417395 21.64800112 -7 16 C-4.69 16 -2.38 16 0 16 C0 10.72 0 5.44 0 0 Z " fill="#FAF9FA" transform="translate(238,94)"/>
<path d="M0 0 C5.61 0 11.22 0 17 0 C17 5.61 17 11.22 17 17 C18.65 17 20.3 17 22 17 C21.85890014 19.10448938 21.71195825 21.2085877 21.5625 23.3125 C21.48128906 24.48425781 21.40007812 25.65601563 21.31640625 26.86328125 C21 30 21 30 20 33 C18.68 33 17.36 33 16 33 C16 27.72 16 22.44 16 17 C10.72 17 5.44 17 0 17 C0 11.39 0 5.78 0 0 Z " fill="#E4E5E4" transform="translate(53,77)"/>
<path d="M0 0 C0.33 1.32 0.66 2.64 1 4 C5.29 4.33 9.58 4.66 14 5 C14 10.28 14 15.56 14 21 C8.72 21 3.44 21 -2 21 C-2 26.61 -2 32.22 -2 38 C-3.98 38 -5.96 38 -8 38 C-7.3875846 30.68163603 -5.85303423 23.84747075 -4 16.75 C-3.45736102 14.64087492 -2.91565979 12.5315083 -2.375 10.421875 C-2.13523438 9.49987305 -1.89546875 8.57787109 -1.6484375 7.62792969 C-1.02367716 5.09595667 -0.49067431 2.56099588 0 0 Z " fill="#E0E0E0" transform="translate(240,72)"/>
<path d="M0 0 C22.47328895 -0.72136483 45.89188311 0.69662068 66 12 C66.875 14.1875 66.875 14.1875 67 16 C61.24042832 16.49394385 56.89712711 14.70212645 51.625 12.6875 C34.80849616 6.59708321 18.79162501 5.4033422 1 5 C0.67 3.35 0.34 1.7 0 0 Z " fill="#D6D6D6" transform="translate(136,79)"/>
<path d="M0 0 C11.22 0 22.44 0 34 0 C34 2.97 34 5.94 34 9 C22.78 9 11.56 9 0 9 C0 6.03 0 3.06 0 0 Z " fill="#F9F9F9" transform="translate(187,0)"/>
<path d="M0 0 C11.22 0 22.44 0 34 0 C34 2.97 34 5.94 34 9 C22.78 9 11.56 9 0 9 C0 6.03 0 3.06 0 0 Z " fill="#E3E4E3" transform="translate(36,0)"/>
<path d="M0 0 C1.97419922 -0.00580078 1.97419922 -0.00580078 3.98828125 -0.01171875 C5.01042725 -0.00229248 5.01042725 -0.00229248 6.05322266 0.00732422 C8.09217574 0.02318221 10.12908231 0.00755799 12.16796875 -0.01171875 C22.42034716 -0.02943814 34.54446182 0.08330336 43.125 6.3984375 C43.4375 9.0859375 43.4375 9.0859375 43.125 11.3984375 C40.57391283 10.96110827 38.32402004 10.48720903 35.953125 9.4296875 C32.37177717 8.12378166 28.82898011 7.67330495 25.0625 7.2734375 C24.28608154 7.18924561 23.50966309 7.10505371 22.7097168 7.01831055 C16.61696469 6.41953067 10.55787115 6.21663776 4.4375 6.2109375 C3.20084595 6.209729 3.20084595 6.209729 1.93920898 6.20849609 C-2.75978829 6.25172514 -7.23987942 6.62281491 -11.875 7.3984375 C-12.205 6.0784375 -12.535 4.7584375 -12.875 3.3984375 C-8.39230174 0.82582514 -5.15238732 0.01479761 0 0 Z " fill="#DBDADB" transform="translate(140.875,111.6015625)"/>
<path d="M0 0 C0 5.61 0 11.22 0 17 C-5.61 17 -11.22 17 -17 17 C-17 11.39 -17 5.78 -17 0 C-9.35653129 -2.1838482 -7.28553903 -1.79643428 0 0 Z " fill="#E2E2E2" transform="translate(120,195)"/>
<path d="M0 0 C2.875 -0.125 2.875 -0.125 6 0 C6.66 0.66 7.32 1.32 8 2 C7.67 2.33 7.34 2.66 7 3 C5.02 3 3.04 3 1 3 C1 8.61 1 14.22 1 20 C-4.28 20 -9.56 20 -15 20 C-15 14.39 -15 8.78 -15 3 C-10.05 3 -5.1 3 0 3 C0 2.01 0 1.02 0 0 Z " fill="#F9F9F9" transform="translate(102,192)"/>
<path d="M0 0 C5.28 0 10.56 0 16 0 C16 5.61 16 11.22 16 17 C13.215625 17.020625 10.43125 17.04125 7.5625 17.0625 C6.68408447 17.071604 5.80566895 17.08070801 4.90063477 17.09008789 C2.93354026 17.09723091 0.96646379 17.05031893 -1 17 C-2.54236225 15.45763775 -2.16936074 14.01543321 -2.1875 11.875 C-2.20167969 11.12992188 -2.21585938 10.38484375 -2.23046875 9.6171875 C-2 7 -2 7 0 0 Z " fill="#F8F9F8" transform="translate(54,9)"/>
<path d="M0 0 C5.61 0 11.22 0 17 0 C17 5.61 17 11.22 17 17 C11.39 17 5.78 17 0 17 C0 11.39 0 5.78 0 0 Z " fill="#F9F9F9" transform="translate(254,195)"/>
<path d="M0 0 C5.61 0 11.22 0 17 0 C17 5.61 17 11.22 17 17 C11.39 17 5.78 17 0 17 C0 11.39 0 5.78 0 0 Z " fill="#E5E5E5" transform="translate(36,178)"/>
<path d="M0 0 C5.61 0 11.22 0 17 0 C17 5.61 17 11.22 17 17 C11.39 17 5.78 17 0 17 C0 11.39 0 5.78 0 0 Z " fill="#E5E5E5" transform="translate(36,144)"/>
<path d="M0 0 C5.61 0 11.22 0 17 0 C17 5.61 17 11.22 17 17 C11.39 17 5.78 17 0 17 C0 11.39 0 5.78 0 0 Z " fill="#E3E3E3" transform="translate(36,60)"/>
<path d="M0 0 C5.61 0 11.22 0 17 0 C17 5.61 17 11.22 17 17 C11.39 17 5.78 17 0 17 C0 11.39 0 5.78 0 0 Z " fill="#F9F9F9" transform="translate(254,9)"/>
<path d="M0 0 C5.61 0 11.22 0 17 0 C17 5.61 17 11.22 17 17 C11.39 17 5.78 17 0 17 C0 11.39 0 5.78 0 0 Z " fill="#F8F9F9" transform="translate(153,9)"/>
<path d="M0 0 C5.61 0 11.22 0 17 0 C17 5.61 17 11.22 17 17 C13.0709375 17.0309375 13.0709375 17.0309375 9.0625 17.0625 C8.2362915 17.071604 7.41008301 17.08070801 6.55883789 17.09008789 C4.70566241 17.09723945 2.85250692 17.0502852 1 17 C0 16 0 16 -0.09765625 12.40234375 C-0.09191272 10.91402745 -0.07889891 9.42573704 -0.0625 7.9375 C-0.041875 5.318125 -0.02125 2.69875 0 0 Z " fill="#E2E2E2" transform="translate(254,26)"/>
<path d="M0 0 C5.61 0 11.22 0 17 0 C17.020625 2.619375 17.04125 5.23875 17.0625 7.9375 C17.071604 8.7637085 17.08070801 9.58991699 17.09008789 10.44116211 C17.09723945 12.29433759 17.0502852 14.14749308 17 16 C16 17 16 17 12.40234375 17.09765625 C10.91402745 17.09191272 9.42573704 17.07889891 7.9375 17.0625 C5.318125 17.041875 2.69875 17.02125 0 17 C0 11.39 0 5.78 0 0 Z " fill="#E3E3E3" transform="translate(53,26)"/>
<path d="M0 0 C5.28 0 10.56 0 16 0 C17.66664735 7.0587417 17.94804453 10.41564374 17 18 C11.39 17.67 5.78 17.34 0 17 C0 11.39 0 5.78 0 0 Z " fill="#E3E2E2" transform="translate(70,43)"/>
<path d="M0 0 C0.474375 0.969375 0.94875 1.93875 1.4375 2.9375 C2.70193947 5.80477437 2.70193947 5.80477437 4 7 C4.14310287 10.6691577 4.04221662 14.32715441 4 18 C-1.61 18 -7.22 18 -13 18 C-13 12.39 -13 6.78 -13 1 C-2.25 0 -2.25 0 0 0 Z " fill="#F7F8F8" transform="translate(66,177)"/>
<path d="M0 0 C5.61 0 11.22 0 17 0 C17 5.28 17 10.56 17 16 C11.39 16 5.78 16 0 16 C0 10.72 0 5.44 0 0 Z " fill="#E4E4E4" transform="translate(254,212)"/>
<path d="M0 0 C5.28 0 10.56 0 16 0 C16 5.61 16 11.22 16 17 C10.72 17 5.44 17 0 17 C0 11.39 0 5.78 0 0 Z " fill="#E3E3E3" transform="translate(3,178)"/>
<path d="M0 0 C5.28 0 10.56 0 16 0 C16 5.61 16 11.22 16 17 C10.72 17 5.44 17 0 17 C0 11.39 0 5.78 0 0 Z " fill="#FAFBFA" transform="translate(20,144)"/>
<path d="M0 0 C5.61 0 11.22 0 17 0 C17 5.28 17 10.56 17 16 C11.39 16 5.78 16 0 16 C0 10.72 0 5.44 0 0 Z " fill="#F9F9F9" transform="translate(36,128)"/>
<path d="M0 0 C5.61 0 11.22 0 17 0 C17 5.28 17 10.56 17 16 C11.39 16 5.78 16 0 16 C0 10.72 0 5.44 0 0 Z " fill="#E2E2E2" transform="translate(254,94)"/>
<path d="M0 0 C5.28 0 10.56 0 16 0 C16 5.61 16 11.22 16 17 C10.72 17 5.44 17 0 17 C0 11.39 0 5.78 0 0 Z " fill="#F9F9F9" transform="translate(255,43)"/>
<path d="M0 0 C5.28 0 10.56 0 16 0 C16 5.61 16 11.22 16 17 C10.72 17 5.44 17 0 17 C0 11.39 0 5.78 0 0 Z " fill="#E3E3E3" transform="translate(20,43)"/>
<path d="M0 0 C5.28 0 10.56 0 16 0 C16 5.61 16 11.22 16 17 C10.72 17 5.44 17 0 17 C0 11.39 0 5.78 0 0 Z " fill="#E3E3E3" transform="translate(3,26)"/>
<path d="M0 0 C5.28 0 10.56 0 16 0 C16 5.61 16 11.22 16 17 C10.72 17 5.44 17 0 17 C0 11.39 0 5.78 0 0 Z " fill="#E4E4E4" transform="translate(238,9)"/>
<path d="M0 0 C5.28 0 10.56 0 16 0 C16 5.61 16 11.22 16 17 C10.72 17 5.44 17 0 17 C0 11.39 0 5.78 0 0 Z " fill="#E1E2E1" transform="translate(137,9)"/>
<path d="M0 0 C5.28 0 10.56 0 16 0 C16 5.61 16 11.22 16 17 C10.72 17 5.44 17 0 17 C0 11.39 0 5.78 0 0 Z " fill="#F8F9F8" transform="translate(120,9)"/>
<path d="M0 0 C5.28 0 10.56 0 16 0 C16 5.61 16 11.22 16 17 C10.72 17 5.44 17 0 17 C0 11.39 0 5.78 0 0 Z " fill="#E3E3E3" transform="translate(20,9)"/>
<path d="M0 0 C5.28 0 10.56 0 16 0 C16 5.61 16 11.22 16 17 C10.72 17 5.44 17 0 17 C0 11.39 0 5.78 0 0 Z " fill="#F9F9F9" transform="translate(3,9)"/>
<path d="M0 0 C0 5.61 0 11.22 0 17 C-5.28 17 -10.56 17 -16 17 C-16 11.72 -16 6.44 -16 1 C-11.53794887 -1.23102556 -4.78092876 -0.04346299 0 0 Z " fill="#E4E4E4" transform="translate(36,161)"/>
<path d="M0 0 C5.28 0 10.56 0 16 0 C16 5.28 16 10.56 16 16 C10.39 16 4.78 16 -1 16 C-1.125 2.25 -1.125 2.25 0 0 Z " fill="#E4E4E4" transform="translate(255,60)"/>
<path d="M0 0 C5.28 0 10.56 0 16 0 C16 5.28 16 10.56 16 16 C10.4484167 17.11031666 5.64927335 17.06806353 0 17 C0 11.39 0 5.78 0 0 Z " fill="#E2E3E3" transform="translate(70,9)"/>
<path d="M0 0 C0 5.61 0 11.22 0 17 C-5.28 17 -10.56 17 -16 17 C-16 11.72 -16 6.44 -16 1 C-10.38103988 0.06350665 -5.6499013 -0.07635002 0 0 Z " fill="#E4E5E4" transform="translate(254,195)"/>
<path d="M0 0 C0 5.61 0 11.22 0 17 C-5.28 17 -10.56 17 -16 17 C-16 11.72 -16 6.44 -16 1 C-10.33966563 0.1913808 -5.62776803 -0.08658105 0 0 Z " fill="#F9F9F9" transform="translate(36,178)"/>
<path d="M0 0 C40.63879968 -0.99529841 40.63879968 -0.99529841 48.91015625 5.5 C50 7 50 7 49.6875 9.1875 C49.460625 9.785625 49.23375 10.38375 49 11 C44.25 10.25 44.25 10.25 42 8 C33.1122889 5.3055794 23.5181065 5.57241723 14.3125 5.375 C12.82094332 5.33671752 11.32940631 5.29766029 9.83789062 5.2578125 C6.22544296 5.16295913 2.61284369 5.07853314 -1 5 C-0.67 3.35 -0.34 1.7 0 0 Z " fill="#D8D8D8" transform="translate(112,141)"/>
<path d="M0 0 C5.28 0 10.56 0 16 0 C16 5.28 16 10.56 16 16 C10.72 16 5.44 16 0 16 C0 10.72 0 5.44 0 0 Z " fill="#F9FAF9" transform="translate(238,212)"/>
<path d="M0 0 C5.28 0 10.56 0 16 0 C16 5.28 16 10.56 16 16 C10.72 16 5.44 16 0 16 C0 10.72 0 5.44 0 0 Z " fill="#E4E4E4" transform="translate(221,212)"/>
<path d="M0 0 C5.28 0 10.56 0 16 0 C16 5.28 16 10.56 16 16 C10.72 16 5.44 16 0 16 C0 10.72 0 5.44 0 0 Z " fill="#F9FAF9" transform="translate(204,212)"/>
<path d="M0 0 C5.28 0 10.56 0 16 0 C16 5.28 16 10.56 16 16 C10.72 16 5.44 16 0 16 C0 10.72 0 5.44 0 0 Z " fill="#F9F9F9" transform="translate(170,212)"/>
<path d="M0 0 C5.28 0 10.56 0 16 0 C16 5.28 16 10.56 16 16 C10.72 16 5.44 16 0 16 C0 10.72 0 5.44 0 0 Z " fill="#F8F9F8" transform="translate(137,212)"/>
<path d="M0 0 C5.28 0 10.56 0 16 0 C16 5.28 16 10.56 16 16 C10.72 16 5.44 16 0 16 C0 10.72 0 5.44 0 0 Z " fill="#E3E3E3" transform="translate(120,212)"/>
<path d="M0 0 C5.28 0 10.56 0 16 0 C16 5.28 16 10.56 16 16 C10.72 16 5.44 16 0 16 C0 10.72 0 5.44 0 0 Z " fill="#F8F9F9" transform="translate(104,212)"/>
<path d="M0 0 C5.28 0 10.56 0 16 0 C16 5.28 16 10.56 16 16 C10.72 16 5.44 16 0 16 C0 10.72 0 5.44 0 0 Z " fill="#E3E3E3" transform="translate(87,212)"/>
<path d="M0 0 C5.28 0 10.56 0 16 0 C16 5.28 16 10.56 16 16 C10.72 16 5.44 16 0 16 C0 10.72 0 5.44 0 0 Z " fill="#F9FAF9" transform="translate(70,212)"/>
<path d="M0 0 C5.28 0 10.56 0 16 0 C16 5.28 16 10.56 16 16 C10.72 16 5.44 16 0 16 C0 10.72 0 5.44 0 0 Z " fill="#F8F8F8" transform="translate(221,196)"/>
<path d="M0 0 C5.28 0 10.56 0 16 0 C16 5.28 16 10.56 16 16 C10.72 16 5.44 16 0 16 C0 10.72 0 5.44 0 0 Z " fill="#FBFBFB" transform="translate(238,179)"/>
<path d="M0 0 C5.28 0 10.56 0 16 0 C16 5.28 16 10.56 16 16 C10.72 16 5.44 16 0 16 C0 10.72 0 5.44 0 0 Z " fill="#E4E4E4" transform="translate(221,179)"/>
<path d="M0 0 C5.28 0 10.56 0 16 0 C16 5.28 16 10.56 16 16 C10.72 16 5.44 16 0 16 C0 10.72 0 5.44 0 0 Z " fill="#F8F8F8" transform="translate(36,162)"/>
<path d="M0 0 C5.28 0 10.56 0 16 0 C16 5.28 16 10.56 16 16 C10.72 16 5.44 16 0 16 C0 10.72 0 5.44 0 0 Z " fill="#FBFBFB" transform="translate(3,162)"/>
<path d="M0 0 C5.28 0 10.56 0 16 0 C16 5.28 16 10.56 16 16 C10.72 16 5.44 16 0 16 C0 10.72 0 5.44 0 0 Z " fill="#FAFAFA" transform="translate(255,145)"/>
<path d="M0 0 C5.28 0 10.56 0 16 0 C16 5.28 16 10.56 16 16 C10.72 16 5.44 16 0 16 C0 10.72 0 5.44 0 0 Z " fill="#E3E4E3" transform="translate(3,145)"/>
<path d="M0 0 C5.28 0 10.56 0 16 0 C16 5.28 16 10.56 16 16 C10.72 16 5.44 16 0 16 C0 10.72 0 5.44 0 0 Z " fill="#F9F9F9" transform="translate(238,128)"/>
<path d="M0 0 C5.28 0 10.56 0 16 0 C16 5.28 16 10.56 16 16 C10.72 16 5.44 16 0 16 C0 10.72 0 5.44 0 0 Z " fill="#E4E4E4" transform="translate(20,128)"/>
<path d="M0 0 C5.28 0 10.56 0 16 0 C16 5.28 16 10.56 16 16 C10.72 16 5.44 16 0 16 C0 10.72 0 5.44 0 0 Z " fill="#F9FAFA" transform="translate(255,111)"/>
<path d="M0 0 C5.28 0 10.56 0 16 0 C16 5.28 16 10.56 16 16 C10.72 16 5.44 16 0 16 C0 10.72 0 5.44 0 0 Z " fill="#F8F9F9" transform="translate(20,111)"/>
<path d="M0 0 C5.28 0 10.56 0 16 0 C16 5.28 16 10.56 16 16 C10.72 16 5.44 16 0 16 C0 10.72 0 5.44 0 0 Z " fill="#E5E5E5" transform="translate(3,111)"/>
<path d="M0 0 C5.28 0 10.56 0 16 0 C16 5.28 16 10.56 16 16 C10.72 16 5.44 16 0 16 C0 10.72 0 5.44 0 0 Z " fill="#E3E3E3" transform="translate(20,94)"/>
<path d="M0 0 C5.28 0 10.56 0 16 0 C16 5.28 16 10.56 16 16 C10.72 16 5.44 16 0 16 C0 10.72 0 5.44 0 0 Z " fill="#F9FAF9" transform="translate(255,77)"/>
<path d="M0 0 C5.28 0 10.56 0 16 0 C16 5.28 16 10.56 16 16 C10.72 16 5.44 16 0 16 C0 10.72 0 5.44 0 0 Z " fill="#E3E3E3" transform="translate(3,60)"/>
<path d="M0 0 C5.28 0 10.56 0 16 0 C16 5.28 16 10.56 16 16 C10.72 16 5.44 16 0 16 C0 10.72 0 5.44 0 0 Z " fill="#F9F9F9" transform="translate(3,43)"/>
<path d="M0 0 C5.28 0 10.56 0 16 0 C16 3.96 16 7.92 16 12 C18.31 12.33 20.62 12.66 23 13 C23 13.33 23 13.66 23 14 C22.25234375 14.04898438 21.5046875 14.09796875 20.734375 14.1484375 C19.25710937 14.26058594 19.25710937 14.26058594 17.75 14.375 C16.77546875 14.44460937 15.8009375 14.51421875 14.796875 14.5859375 C12.03311617 14.84406417 12.03311617 14.84406417 9.90625 16.0625 C6.5856991 17.69555782 3.56222513 16.59370419 0 16 C0 10.72 0 5.44 0 0 Z " fill="#E2E1E2" transform="translate(87,26)"/>
<path d="M0 0 C3.6815625 0.4640625 3.6815625 0.4640625 7.4375 0.9375 C8.21150146 1.03281006 8.98550293 1.12812012 9.78295898 1.22631836 C14.88888889 1.88888889 14.88888889 1.88888889 16 3 C16.14426614 7.66845228 16.04208415 12.32865953 16 17 C10.72 17 5.44 17 0 17 C0 11.39 0 5.78 0 0 Z " fill="#F8F8F8" transform="translate(120,195)"/>
<path d="M0 0 C5.28 0 10.56 0 16 0 C16 5.61 16 11.22 16 17 C13.545625 16.690625 11.09125 16.38125 8.5625 16.0625 C7.78849854 15.96718994 7.01449707 15.87187988 6.21704102 15.77368164 C1.11111111 15.11111111 1.11111111 15.11111111 0 14 C-0.14426614 9.33154772 -0.04208415 4.67134047 0 0 Z " fill="#E2E2E2" transform="translate(221,26)"/>
<path d="M0 0 C5.28 0 10.56 0 16 0 C16 4.95 16 9.9 16 15 C10.72 15 5.44 15 0 15 C0 10.05 0 5.1 0 0 Z " fill="#E2E2E2" transform="translate(3,78)"/>
<path d="M0 0 C0.66 0.66 1.32 1.32 2 2 C4.31 2 6.62 2 9 2 C9 7.61 9 13.22 9 19 C3.39 19 -2.22 19 -8 19 C-8.33 18.01 -8.66 17.02 -9 16 C-8.236875 15.855625 -7.47375 15.71125 -6.6875 15.5625 C-3.02245865 13.43166201 -2.68735863 11.21949067 -1.55859375 7.265625 C-0.96380447 4.85319297 -0.39578414 2.45386169 0 0 Z " fill="#DFDFDF" transform="translate(212,193)"/>
<path d="M0 0 C1.24639829 3.73919487 0.20086922 5.33388523 -1.234375 8.86328125 C-2.30350806 11.84703526 -2.61616429 14.8653417 -3 18 C-4 19 -4 19 -6.50390625 19.09765625 C-9.3359375 19.06510417 -12.16796875 19.03255208 -15 19 C-15 13.72 -15 8.44 -15 3 C-10.05 2.67 -5.1 2.34 0 2 C0 1.34 0 0.68 0 0 Z " fill="#E1E2E1" transform="translate(68,159)"/>
<path d="M0 0 C3 1 3 1 4 3 C4.96292969 2.83886719 5.92585937 2.67773438 6.91796875 2.51171875 C11.38587314 1.87856952 15.8053925 1.80809509 20.3125 1.8125 C21.60897461 1.8137085 21.60897461 1.8137085 22.93164062 1.81494141 C28.9913779 1.87121355 34.97538714 2.22548794 41 2.875 C41.74677002 2.95339111 42.49354004 3.03178223 43.26293945 3.11254883 C46.86733344 3.54710933 49.88826069 4.07136991 53 6 C53 6.99 53 7.98 53 9 C52.05125 8.855625 51.1025 8.71125 50.125 8.5625 C41.23380701 7.31314943 32.48035662 6.80694972 23.5 6.8125 C22.49839844 6.81185547 21.49679688 6.81121094 20.46484375 6.81054688 C15.89046856 6.84404763 11.49629402 7.02904715 6.96875 7.69921875 C3 8 3 8 1.26367188 6.68676758 C-0.44523086 4.40569939 -0.22524569 2.77803023 0 0 Z " fill="#141313" transform="translate(125,115)"/>
<path d="M0 0 C-0.59468016 5.66828055 -2.09242801 10.60322154 -4.0625 15.9375 C-4.34416016 16.71673828 -4.62582031 17.49597656 -4.91601562 18.29882812 C-5.60467706 20.20140125 -6.30149903 22.10101725 -7 24 C-9.9640578 22.6955696 -10.91606405 22.12890164 -12.75 19.3125 C-14.19047404 15.4952438 -14.50620732 13.04965855 -14 9 C-10.81940134 2.87440258 -7.11255009 -0.60964715 0 0 Z " fill="#E9EAE9" transform="translate(107,46)"/>
<path d="M0 0 C4.39453125 0.73242188 4.39453125 0.73242188 8.7890625 1.46484375 C10.37847656 1.72974609 10.37847656 1.72974609 12 2 C14 2.33333333 16 2.66666667 18 3 C17.01 3.495 17.01 3.495 16 4 C16 7.3 16 10.6 16 14 C10.72 14 5.44 14 0 14 C0 9.38 0 4.76 0 0 Z " fill="#E2E1E1" transform="translate(137,198)"/>
<path d="M0 0 C5.61 0 11.22 0 17 0 C17 5.61 17 11.22 17 17 C13.37 17 9.74 17 6 17 C5.67 17.99 5.34 18.98 5 20 C5.13019531 19.11957031 5.26039063 18.23914063 5.39453125 17.33203125 C6.53318016 10.11626035 6.53318016 10.11626035 3.625 3.8125 C2.75875 3.214375 1.8925 2.61625 1 2 C0.67 1.34 0.34 0.68 0 0 Z " fill="#E0E0E0" transform="translate(237,43)"/>
<path d="M0 0 C0.33 0.66 0.66 1.32 1 2 C3.97 2 6.94 2 10 2 C10 7.28 10 12.56 10 18 C5.38 18 0.76 18 -4 18 C-2 5.14285714 -2 5.14285714 0 0 Z " fill="#E0E0E0" transform="translate(227,126)"/>
<path d="M0 0 C2.45777197 3.75894536 2.25710815 7.49953546 2.1953125 11.828125 C2.1924826 12.57713074 2.18965271 13.32613647 2.18673706 14.09783936 C2.1755726 16.48205776 2.15047531 18.86589579 2.125 21.25 C2.11496535 22.86978623 2.10584035 24.48957836 2.09765625 26.109375 C2.07564555 30.07306246 2.04114175 34.03646681 2 38 C-0.64 38.33 -3.28 38.66 -6 39 C-5.26311404 25.81228236 -2.69571671 12.90772587 0 0 Z " fill="#F3F3F4" transform="translate(219,157)"/>
<path d="M0 0 C0.84626953 0.00966797 1.69253906 0.01933594 2.56445312 0.02929688 C6.67205123 0.10327867 10.55847548 0.3012166 14.5625 1.3125 C14.2325 2.6325 13.9025 3.9525 13.5625 5.3125 C5.9725 5.3125 -1.6175 5.3125 -9.4375 5.3125 C-9.1075 6.6325 -8.7775 7.9525 -8.4375 9.3125 C-6.1275 9.6425 -3.8175 9.9725 -1.4375 10.3125 C-1.4375 10.9725 -1.4375 11.6325 -1.4375 12.3125 C1.5325 12.6425 4.5025 12.9725 7.5625 13.3125 C7.5625 13.6425 7.5625 13.9725 7.5625 14.3125 C4.81085568 14.44767903 2.06585479 14.54665251 -0.6875 14.625 C-1.46480469 14.66689453 -2.24210938 14.70878906 -3.04296875 14.75195312 C-8.8369423 14.87575598 -8.8369423 14.87575598 -11.953125 11.953125 C-13.61786523 8.99163976 -14.11977047 7.63856855 -13.4375 4.3125 C-9.94135899 -0.86065174 -5.66868351 -0.19339709 0 0 Z " fill="#1B1C1B" transform="translate(145.4375,73.6875)"/>
<path d="M0 0 C-1.51473219 7.98676972 -4.16802552 15.40122878 -7 23 C-10.84375 21.203125 -10.84375 21.203125 -12.25 19.375 C-13.87555982 14.2273939 -13.71509312 10.40370131 -11.3125 5.6875 C-7.74197739 1.53797372 -5.5241617 0 0 0 Z " fill="#E8E8E9" transform="translate(93,89)"/>
<path d="M0 0 C-0.74439926 4.37334563 -2.07764271 8.49764182 -3.5 12.6875 C-3.72558594 13.36361328 -3.95117188 14.03972656 -4.18359375 14.73632812 C-5.8590663 19.7181326 -5.8590663 19.7181326 -7 22 C-9.7385669 20.9958588 -10.81209575 20.33822766 -12.25 17.75 C-13.55588846 12.9617423 -13.55698176 9.62582456 -11.1875 5.25 C-7.85720127 0.30212761 -5.73585823 -0.25492703 0 0 Z " fill="#E2E3E3" transform="translate(79,130)"/>
<path d="M0 0 C1.18335938 0.20238281 2.36671875 0.40476563 3.5859375 0.61328125 C4.82859375 0.82082031 6.07125 1.02835938 7.3515625 1.2421875 C11.58376499 2.043741 15.77376879 2.91508535 19.9609375 3.92578125 C20.4559375 6.40078125 20.4559375 6.40078125 20.9609375 8.92578125 C12.80650465 9.34527194 5.30394991 8.06912829 -2.6640625 6.42578125 C-3.85902344 6.18730469 -5.05398437 5.94882813 -6.28515625 5.703125 C-9.204949 5.11916645 -12.1226943 4.52656716 -15.0390625 3.92578125 C-15.0390625 3.26578125 -15.0390625 2.60578125 -15.0390625 1.92578125 C-13.3890625 1.59578125 -11.7390625 1.26578125 -10.0390625 0.92578125 C-10.0390625 1.58578125 -10.0390625 2.24578125 -10.0390625 2.92578125 C-8.7190625 2.92578125 -7.3990625 2.92578125 -6.0390625 2.92578125 C-5.37777344 2.16201172 -5.37777344 2.16201172 -4.703125 1.3828125 C-3.0390625 -0.07421875 -3.0390625 -0.07421875 0 0 Z " fill="#D5D5D4" transform="translate(179.0390625,194.07421875)"/>
<path d="M0 0 C6.14469855 -0.19202183 11.09956583 0.28351006 17 2 C17 4.64 17 7.28 17 10 C11.39 10 5.78 10 0 10 C0 6.7 0 3.4 0 0 Z " fill="#F3F4F3" transform="translate(153,202)"/>
<path d="M0 0 C5.61 0 11.22 0 17 0 C17.33 0.66 17.66 1.32 18 2 C20.52733235 2.65555119 20.52733235 2.65555119 23 3 C23 3.33 23 3.66 23 4 C22.18015625 3.979375 21.3603125 3.95875 20.515625 3.9375 C17.17407885 4.00145304 14.24173068 4.16801327 11 5 C8.79352713 7.41588349 7.82984227 9.85947624 7 13 C4.36 13 1.72 13 -1 13 C-0.67 8.71 -0.34 4.42 0 0 Z " fill="#F4F4F4" transform="translate(103,26)"/>
<path d="M0 0 C5.61 0 11.22 0 17 0 C17 2.97 17 5.94 17 9 C9.57313685 9.10331031 2.36487404 8.99862699 -5 8 C-5 7.67 -5 7.34 -5 7 C-3.35 7 -1.7 7 0 7 C0 4.69 0 2.38 0 0 Z " fill="#E1E0E1" transform="translate(153,26)"/>
<path d="M0 0 C5.61 0 11.22 0 17 0 C17 2.97 17 5.94 17 9 C11.39 9 5.78 9 0 9 C0 6.03 0 3.06 0 0 Z " fill="#E2E3E2" transform="translate(153,0)"/>
<path d="M0 0 C5.61 0 11.22 0 17 0 C17 2.97 17 5.94 17 9 C11.39 9 5.78 9 0 9 C0 6.03 0 3.06 0 0 Z " fill="#F9F9F9" transform="translate(103,0)"/>
<path d="M0 0 C7.59 0 15.18 0 23 0 C23 0.33 23 0.66 23 1 C17.72 1 12.44 1 7 1 C6.67 6.28 6.34 11.56 6 17 C3.03 17 0.06 17 -3 17 C-2.88366642 15.47847921 -2.7564113 13.95779277 -2.625 12.4375 C-2.55539063 11.59058594 -2.48578125 10.74367188 -2.4140625 9.87109375 C-2 7 -2 7 0 0 Z " fill="#F2F2F2" transform="translate(231,110)"/>
<path d="M0 0 C5.28 0 10.56 0 16 0 C16 2.97 16 5.94 16 9 C10.72 9 5.44 9 0 9 C0 6.03 0 3.06 0 0 Z " fill="#FAFBFA" transform="translate(238,0)"/>
<path d="M0 0 C5.28 0 10.56 0 16 0 C16 2.97 16 5.94 16 9 C10.72 9 5.44 9 0 9 C0 6.03 0 3.06 0 0 Z " fill="#E2E4E3" transform="translate(221,0)"/>
<path d="M0 0 C5.28 0 10.56 0 16 0 C16 2.97 16 5.94 16 9 C10.72 9 5.44 9 0 9 C0 6.03 0 3.06 0 0 Z " fill="#F9FAF9" transform="translate(137,0)"/>
<path d="M0 0 C5.28 0 10.56 0 16 0 C16 2.97 16 5.94 16 9 C10.72 9 5.44 9 0 9 C0 6.03 0 3.06 0 0 Z " fill="#E3E3E3" transform="translate(87,0)"/>
<path d="M0 0 C5.28 0 10.56 0 16 0 C16 2.97 16 5.94 16 9 C10.72 9 5.44 9 0 9 C0 6.03 0 3.06 0 0 Z " fill="#F9F9F9" transform="translate(20,0)"/>
<path d="M0 0 C5.28 0 10.56 0 16 0 C16 2.97 16 5.94 16 9 C10.72 9 5.44 9 0 9 C0 6.03 0 3.06 0 0 Z " fill="#E3E4E3" transform="translate(3,0)"/>
<path d="M0 0 C0.91007812 0.00902344 1.82015625 0.01804687 2.7578125 0.02734375 C3.45648438 0.03894531 4.15515625 0.05054687 4.875 0.0625 C3.04004854 4.7809466 3.04004854 4.7809466 1.8125 6.875 C0.39039981 10.19323378 0.23351435 13.47735649 -0.125 17.0625 C-2.435 17.0625 -4.745 17.0625 -7.125 17.0625 C-7.125 11.7825 -7.125 6.5025 -7.125 1.0625 C-4.60024538 -0.19987731 -2.81299534 -0.03606404 0 0 Z " fill="#E2E1E2" transform="translate(60.125,126.9375)"/>
<path d="M0 0 C8.56380093 0.54153447 16.91984873 1.93334142 25.33691406 3.52905273 C27.52252021 3.94175241 29.71027354 4.34134524 31.8984375 4.74023438 C33.29702114 5.00182405 34.69546434 5.26416591 36.09375 5.52734375 C37.34865234 5.76187256 38.60355469 5.99640137 39.89648438 6.23803711 C43 7 43 7 46 9 C36.7828297 12.0723901 25.02493565 8.14578137 15.875 6 C14.67101562 5.72671875 13.46703125 5.4534375 12.2265625 5.171875 C3.59029018 3.19676339 3.59029018 3.19676339 0 2 C0 1.34 0 0.68 0 0 Z " fill="#DBDAD9" transform="translate(72,176)"/>
<path d="M0 0 C0.99 0 1.98 0 3 0 C3 14.19 3 28.38 3 43 C2.01 43 1.02 43 0 43 C0 28.81 0 14.62 0 0 Z " fill="#E3E4E4" transform="translate(0,0)"/>
<path d="M0 0 C0.309375 0.804375 0.61875 1.60875 0.9375 2.4375 C1.73030023 5.15118417 1.73030023 5.15118417 4.0625 6 C4.701875 6.33 5.34125 6.66 6 7 C6.33 8.65 6.66 10.3 7 12 C0.565 12.495 0.565 12.495 -6 13 C-6 8.71 -6 4.42 -6 0 C-3 -1 -3 -1 0 0 Z " fill="#F2F2F2" transform="translate(76,111)"/>
<path d="M0 0 C4.10410755 -0.05796132 8.20811016 -0.09358313 12.3125 -0.125 C13.47974609 -0.14175781 14.64699219 -0.15851563 15.84960938 -0.17578125 C16.96787109 -0.18222656 18.08613281 -0.18867187 19.23828125 -0.1953125 C20.26993408 -0.20578613 21.30158691 -0.21625977 22.36450195 -0.22705078 C25 0 25 0 28 2 C26.68 2.33 25.36 2.66 24 3 C24.33 3.66 24.66 4.32 25 5 C17.08 5 9.16 5 1 5 C0.67 3.35 0.34 1.7 0 0 Z " fill="#DFE0DF" transform="translate(136,79)"/>
<path d="M0 0 C2.31 0 4.62 0 7 0 C7 5.61 7 11.22 7 17 C4.69 17 2.38 17 0 17 C0 11.39 0 5.78 0 0 Z " fill="#F8F9F8" transform="translate(271,161)"/>
<path d="M0 0 C2.31 0 4.62 0 7 0 C7 5.61 7 11.22 7 17 C4.69 17 2.38 17 0 17 C0 11.39 0 5.78 0 0 Z " fill="#E5E4E5" transform="translate(271,43)"/>
<path d="M0 0 C2.31 0 4.62 0 7 0 C7 5.61 7 11.22 7 17 C4.69 17 2.38 17 0 17 C0 11.39 0 5.78 0 0 Z " fill="#F9F9F8" transform="translate(271,26)"/>
<path d="M0 0 C2.31 0 4.62 0 7 0 C7 5.61 7 11.22 7 17 C4.69 17 2.38 17 0 17 C0 11.39 0 5.78 0 0 Z " fill="#E3E3E3" transform="translate(271,9)"/>
<path d="M0 0 C2.31 0 4.62 0 7 0 C7 5.28 7 10.56 7 16 C4.69 16 2.38 16 0 16 C0 10.72 0 5.44 0 0 Z " fill="#F9F9F9" transform="translate(271,212)"/>
<path d="M0 0 C2.31 0 4.62 0 7 0 C7 5.28 7 10.56 7 16 C4.69 16 2.38 16 0 16 C0 10.72 0 5.44 0 0 Z " fill="#E5E5E5" transform="translate(271,145)"/>
<path d="M0 0 C2.31 0 4.62 0 7 0 C7 5.28 7 10.56 7 16 C4.69 16 2.38 16 0 16 C0 10.72 0 5.44 0 0 Z " fill="#FBFAFB" transform="translate(271,128)"/>
<path d="M0 0 C2.31 0 4.62 0 7 0 C7 5.28 7 10.56 7 16 C4.69 16 2.38 16 0 16 C0 10.72 0 5.44 0 0 Z " fill="#E2E1E2" transform="translate(271,111)"/>
<path d="M0 0 C2.31 0 4.62 0 7 0 C7 5.28 7 10.56 7 16 C4.69 16 2.38 16 0 16 C0 10.72 0 5.44 0 0 Z " fill="#F8F9F8" transform="translate(271,94)"/>
<path d="M0 0 C2.31 0 4.62 0 7 0 C7 5.28 7 10.56 7 16 C4.69 16 2.38 16 0 16 C0 10.72 0 5.44 0 0 Z " fill="#E4E5E4" transform="translate(271,77)"/>
<path d="M0 0 C2.31 0 4.62 0 7 0 C7 5.28 7 10.56 7 16 C4.69 16 2.38 16 0 16 C0 10.72 0 5.44 0 0 Z " fill="#FAFAFA" transform="translate(271,60)"/>
<path d="M0 0 C9.16191918 0.56291453 18.01728306 2.20796488 27 4 C26.01 4.495 26.01 4.495 25 5 C24.67 5.99 24.34 6.98 24 8 C22.68 7.67 21.36 7.34 20 7 C20 6.34 20 5.68 20 5 C19.31164062 5.34417969 18.62328125 5.68835938 17.9140625 6.04296875 C14.36022798 7.2101128 12.05184019 6.90840169 8.375 6.3125 C7.24835938 6.14363281 6.12171875 5.97476563 4.9609375 5.80078125 C1.9890979 4.99705154 0.85555292 4.38853089 -1 2 C-0.67 1.34 -0.34 0.68 0 0 Z " fill="#DDDDDC" transform="translate(149,190)"/>
<path d="M0 0 C2.45906037 0.47565766 4.91720993 0.95536052 7.375 1.4375 C8.07367188 1.57220703 8.77234375 1.70691406 9.4921875 1.84570312 C14.7734375 2.88671875 14.7734375 2.88671875 17 4 C17 5.32 17 6.64 17 8 C11.39 8 5.78 8 0 8 C0 5.36 0 2.72 0 0 Z " fill="#E0E0DF" transform="translate(170,204)"/>
<path d="M0 0 C0.33 0 0.66 0 1 0 C1 13.86 1 27.72 1 42 C3.64 42 6.28 42 9 42 C8.04737966 43.48285242 7.08771595 44.96118201 6.125 46.4375 C5.59132813 47.26121094 5.05765625 48.08492187 4.5078125 48.93359375 C3 51 3 51 1 52 C-0.30475618 49.39048764 -0.11301572 47.47298715 -0.09765625 44.5546875 C-0.09282227 42.94013672 -0.09282227 42.94013672 -0.08789062 41.29296875 C-0.07951172 40.16503906 -0.07113281 39.03710938 -0.0625 37.875 C-0.05798828 36.73933594 -0.05347656 35.60367188 -0.04882812 34.43359375 C-0.03701615 31.62234362 -0.02054507 28.8111977 0 26 C-1.65 26 -3.3 26 -5 26 C-5 25.67 -5 25.34 -5 25 C-3.35 25 -1.7 25 0 25 C0 16.75 0 8.5 0 0 Z " fill="#EFEFEE" transform="translate(86,0)"/>
<path d="M0 0 C2.0625 1.75 2.0625 1.75 2.375 4.4375 C2.271875 5.200625 2.16875 5.96375 2.0625 6.75 C-0.52185287 6.30696808 -2.7841668 5.81814809 -5.1875 4.75 C-9.03236139 3.35186858 -12.87889457 3.08600655 -16.9375 2.75 C-11.62102087 -2.93313287 -7.15823548 -3.04605765 0 0 Z " fill="#CFCFCF" transform="translate(181.9375,116.25)"/>
<path d="M0 0 C2.71486934 3.97610786 2.22440753 8.13901977 2.125 12.75 C2.11597656 13.54277344 2.10695312 14.33554688 2.09765625 15.15234375 C2.07417012 17.10169281 2.03830137 19.05088575 2 21 C0.02 21.66 -1.96 22.32 -4 23 C-3.20736384 15.23216563 -1.58110513 7.6370361 0 0 Z " fill="#DFDFDF" transform="translate(219,157)"/>
<path d="M0 0 C5.28 0 10.56 0 16 0 C16 1.98 16 3.96 16 6 C12.7 5.67 9.4 5.34 6 5 C6 4.34 6 3.68 6 3 C4.35 3 2.7 3 1 3 C0.67 2.01 0.34 1.02 0 0 Z " fill="#DBDCDB" transform="translate(120,26)"/>
<path d="M0 0 C1.32 0.66 2.64 1.32 4 2 C4.042721 3.66611905 4.04063832 5.33382885 4 7 C2.33657163 8.66342837 0.2174291 8.36048097 -2.0625 8.5625 C-2.98160156 8.64628906 -3.90070313 8.73007813 -4.84765625 8.81640625 C-5.55792969 8.87699219 -6.26820312 8.93757813 -7 9 C-7.33 6.69 -7.66 4.38 -8 2 C-7.05125 2.04125 -6.1025 2.0825 -5.125 2.125 C-1.89755144 2.34973818 -1.89755144 2.34973818 0 0 Z " fill="#E7E7E7" transform="translate(93,74)"/>
<path d="M0 0 C0.99 0 1.98 0 3 0 C2.67 10.89 2.34 21.78 2 33 C1.34 33 0.68 33 0 33 C0 22.11 0 11.22 0 0 Z " fill="#E3E3E3" transform="translate(0,195)"/>
<path d="M0 0 C0.67740234 -0.01224609 1.35480469 -0.02449219 2.05273438 -0.03710938 C5.77191947 -0.04801608 8.53094986 0.13452523 11.6875 2.1875 C11.6875 3.1775 11.6875 4.1675 11.6875 5.1875 C8.91532133 4.90578671 6.14519759 4.61258608 3.375 4.3125 C2.58931641 4.23386719 1.80363281 4.15523438 0.99414062 4.07421875 C-0.1418457 3.94853516 -0.1418457 3.94853516 -1.30078125 3.8203125 C-1.99727783 3.74699707 -2.69377441 3.67368164 -3.41137695 3.59814453 C-5.3125 3.1875 -5.3125 3.1875 -8.3125 1.1875 C-6.34773763 -0.77726237 -2.67718224 0.00250438 0 0 Z " fill="#0B0B0B" transform="translate(166.3125,118.8125)"/>
<path d="M0 0 C2.31 0 4.62 0 7 0 C7 2.97 7 5.94 7 9 C4.69 9 2.38 9 0 9 C0 6.03 0 3.06 0 0 Z " fill="#F9F9F9" transform="translate(271,0)"/>
<path d="M0 0 C7.75451806 0.58006237 15.34742277 1.62440584 23 3 C20.55722326 5.94659944 20.55722326 5.94659944 18.125 6.1796875 C11.92902096 5.29129345 5.99821931 3.78264836 0 2 C0 1.34 0 0.68 0 0 Z " fill="#CFCFCE" transform="translate(72,176)"/>
<path d="M0 0 C0.99 0 1.98 0 3 0 C3 5.61 3 11.22 3 17 C2.01 17 1.02 17 0 17 C0 11.39 0 5.78 0 0 Z " fill="#F9F9F9" transform="translate(0,178)"/>
<path d="M0 0 C0.99 0 1.98 0 3 0 C3 5.61 3 11.22 3 17 C2.01 17 1.02 17 0 17 C0 11.39 0 5.78 0 0 Z " fill="#E5E5E5" transform="translate(0,161)"/>
<path d="M0 0 C0.99 0 1.98 0 3 0 C3 5.61 3 11.22 3 17 C2.01 17 1.02 17 0 17 C0 11.39 0 5.78 0 0 Z " fill="#E4E3E4" transform="translate(0,43)"/>
<path d="M0 0 C0.99 0 1.98 0 3 0 C3 5.61 3 11.22 3 17 C2.01 17 1.02 17 0 17 C0 11.39 0 5.78 0 0 Z " fill="#F7F7F7" transform="translate(0,26)"/>
<path d="M0 0 C5.69051363 0.5381371 11.34865884 1.1400133 17 2 C17 2.66 17 3.32 17 4 C11.39 4 5.78 4 0 4 C0 2.68 0 1.36 0 0 Z " fill="#EFEFEF" transform="translate(187,208)"/>
<path d="M0 0 C0.99 0 1.98 0 3 0 C3 5.28 3 10.56 3 16 C2.01 16 1.02 16 0 16 C0 10.72 0 5.44 0 0 Z " fill="#E4E4E4" transform="translate(0,94)"/>
<path d="M0 0 C0.99 0.33 1.98 0.66 3 1 C3 5.95 3 10.9 3 16 C2.01 16 1.02 16 0 16 C0 10.72 0 5.44 0 0 Z " fill="#E5E5E5" transform="translate(0,128)"/>
<path d="M0 0 C3.3 0.33 6.6 0.66 10 1 C9.67 2.32 9.34 3.64 9 5 C2.47692308 5.36923077 2.47692308 5.36923077 0.0625 3.5 C-0.4634375 2.7575 -0.4634375 2.7575 -1 2 C-0.67 1.34 -0.34 0.68 0 0 Z " fill="#E6E5E5" transform="translate(149,190)"/>
<path d="M0 0 C1.98 1.65 3.96 3.3 6 5 C5.01 5.495 5.01 5.495 4 6 C4 8.31 4 10.62 4 13 C2 11 0 9 -2 7 C-1.34 4.69 -0.68 2.38 0 0 Z " fill="#1A1919" transform="translate(100,82)"/>
<path d="M0 0 C1.65 0.33 3.3 0.66 5 1 C4.34 3.31 3.68 5.62 3 8 C1.35 8.33 -0.3 8.66 -2 9 C-1.34 6.03 -0.68 3.06 0 0 Z " fill="#1A1919" transform="translate(91,95)"/>
<path d="M0 0 C1.65 0 3.3 0 5 0 C4.67 1.32 4.34 2.64 4 4 C-3.26 4 -10.52 4 -18 4 C-18 3.67 -18 3.34 -18 3 C-9.585 2.505 -9.585 2.505 -1 2 C-0.67 1.34 -0.34 0.68 0 0 Z " fill="#4A4B49" transform="translate(155,75)"/>
<path d="M0 0 C0.33 2.64 0.66 5.28 1 8 C-0.98 8 -2.96 8 -5 8 C-5.25 5.6875 -5.25 5.6875 -5 3 C-1.79310345 0 -1.79310345 0 0 0 Z " fill="#E3E2E3" transform="translate(237,102)"/>
<path d="M0 0 C1.65 0 3.3 0 5 0 C4.67 3.3 4.34 6.6 4 10 C3.67 10 3.34 10 3 10 C3 8.35 3 6.7 3 5 C2.01 5.33 1.02 5.66 0 6 C0 4.02 0 2.04 0 0 Z " fill="#D3D4D3" transform="translate(70,94)"/>
<path d="M0 0 C2.875 -0.125 2.875 -0.125 6 0 C6.66 0.66 7.32 1.32 8 2 C3.46298506 3.45184478 -0.18061476 4.23509196 -5 4 C-5 3.67 -5 3.34 -5 3 C-3.35 3 -1.7 3 0 3 C0 2.01 0 1.02 0 0 Z " fill="#F3F4F3" transform="translate(102,192)"/>
<path d="M0 0 C2.0078125 0.23046875 2.0078125 0.23046875 5.0078125 2.23046875 C1.48721682 3.40400064 -1.2986805 3.43193277 -4.9921875 3.23046875 C-5.6521875 2.57046875 -6.3121875 1.91046875 -6.9921875 1.23046875 C-5.11574989 -0.64596886 -2.49413049 0.05061888 0 0 Z " fill="#EBEBEA" transform="translate(112.9921875,182.76953125)"/>
<path d="M0 0 C0.99 0 1.98 0 3 0 C3 2.97 3 5.94 3 9 C2.01 9 1.02 9 0 9 C0 6.03 0 3.06 0 0 Z " fill="#F7F8F7" transform="translate(0,0)"/>
<path d="M0 0 C-1.20703125 1.51953125 -1.20703125 1.51953125 -3 3 C-5.26171875 3.07421875 -5.26171875 3.07421875 -7.6875 2.6875 C-8.89986328 2.50767578 -8.89986328 2.50767578 -10.13671875 2.32421875 C-10.75160156 2.21722656 -11.36648437 2.11023438 -12 2 C-8.15820154 -2.0018734 -5.05897886 -0.92747946 0 0 Z " fill="#BBBABA" transform="translate(95,179)"/>
<path d="M0 0 C0.8353125 0.556875 0.8353125 0.556875 1.6875 1.125 C0.39740357 1.62903768 -0.89463789 2.12809926 -2.1875 2.625 C-3.26644531 3.04265625 -3.26644531 3.04265625 -4.3671875 3.46875 C-6.3125 4.125 -6.3125 4.125 -8.3125 4.125 C-7.3125 1.125 -7.3125 1.125 -5 -0.1875 C-2.3125 -0.875 -2.3125 -0.875 0 0 Z " fill="#0C0C0D" transform="translate(140.3125,108.875)"/>
<path d="M0 0 C2.31 0 4.62 0 7 0 C6.195625 0.61875 5.39125 1.2375 4.5625 1.875 C1.96125481 3.74164041 1.96125481 3.74164041 1 6 C0.34 6 -0.32 6 -1 6 C-0.67 4.02 -0.34 2.04 0 0 Z " fill="#D6D6D7" transform="translate(116,36)"/>
<path d="M0 0 C0.33 0 0.66 0 1 0 C1.33 5.61 1.66 11.22 2 17 C1.01 17 0.02 17 -1 17 C-0.67 11.39 -0.34 5.78 0 0 Z " fill="#EDEEED" transform="translate(36,26)"/>
<path d="M0 0 C0 0.66 0 1.32 0 2 C1.32 2.33 2.64 2.66 4 3 C0.67465243 4.10844919 -1.62182575 3.84454356 -5 3 C-5 2.34 -5 1.68 -5 1 C-2 0 -2 0 0 0 Z " fill="#C2C2C1" transform="translate(169,195)"/>
<path d="M0 0 C4 1 4 1 4 1 Z M0 1 C0 1.66 0 2.32 0 3 C0.66 3.33 1.32 3.66 2 4 C-0.97 3.67 -3.94 3.34 -7 3 C-3 1 -3 1 0 1 Z " fill="#BBBABA" transform="translate(118,184)"/>
<path d="M0 0 C1.98 0.495 1.98 0.495 4 1 C3.67 2.32 3.34 3.64 3 5 C1.68 4.67 0.36 4.34 -1 4 C-0.67 2.68 -0.34 1.36 0 0 Z " fill="#CDCCCC" transform="translate(146,189)"/>
<path d="M0 0 C1.32 0.33 2.64 0.66 4 1 C4 2.65 4 4.3 4 6 C3.01 6.495 3.01 6.495 2 7 C1.34 4.69 0.68 2.38 0 0 Z " fill="#D7D7D7" transform="translate(230,48)"/>
</svg>
